<svg width="20" height="20" viewBox="0 0 20 20" fill="none" xmlns="http://www.w3.org/2000/svg">
<path d="M1.6665 5L7.42735 8.26414C9.55117 9.4675 10.4485 9.4675 12.5723 8.26414L18.3332 5" stroke="#006980" stroke-width="1.25" stroke-linejoin="round"/>
<path d="M1.67965 11.2297C1.73412 13.7844 1.76136 15.0616 2.70397 16.0079C3.64657 16.954 4.95845 16.9869 7.5822 17.0529C9.19925 17.0935 10.8004 17.0935 12.4175 17.0529C15.0413 16.9869 16.3531 16.954 17.2958 16.0079C18.2383 15.0616 18.2656 13.7844 18.32 11.2297C18.3376 10.4083 18.3376 9.59177 18.32 8.77035C18.2656 6.21574 18.2383 4.93843 17.2958 3.99224C16.3531 3.04605 15.0413 3.01309 12.4175 2.94716C10.8004 2.90653 9.19925 2.90653 7.58219 2.94715C4.95845 3.01307 3.64657 3.04603 2.70396 3.99223C1.76135 4.93842 1.73412 6.21573 1.67964 8.77035C1.66212 9.59177 1.66213 10.4083 1.67965 11.2297Z" stroke="#006980" stroke-width="1.25" stroke-linejoin="round"/>
</svg>
