<svg width="24" height="25" viewBox="0 0 24 25" fill="none" xmlns="http://www.w3.org/2000/svg">
<path d="M2.52992 14.894C2.31727 16.2471 3.268 17.1862 4.43205 17.6542C8.89481 19.4486 15.1052 19.4486 19.5679 17.6542C20.732 17.1862 21.6827 16.2471 21.4701 14.894C21.3394 14.0625 20.6932 13.3701 20.2144 12.694C19.5873 11.7975 19.525 10.8197 19.5249 9.77941C19.5249 5.7591 16.1559 2.5 12 2.5C7.84413 2.5 4.47513 5.7591 4.47513 9.77941C4.47503 10.8197 4.41272 11.7975 3.78561 12.694C3.30684 13.3701 2.66061 14.0625 2.52992 14.894Z" stroke="#004B5B" stroke-width="1.5" stroke-linecap="round" stroke-linejoin="round"/>
<path d="M9 21.5C9.79613 22.1219 10.8475 22.5 12 22.5C13.1525 22.5 14.2039 22.1219 15 21.5" stroke="#004B5B" stroke-width="1.5" stroke-linecap="round" stroke-linejoin="round"/>
<circle cx="18" cy="5.5" r="4" fill="#F26262"/>
</svg>
