<svg width="20" height="20" viewBox="0 0 20 20" fill="none" xmlns="http://www.w3.org/2000/svg">
<path d="M6.12814 15C4.35887 15 3.47424 15 2.84441 14.6224C2.43278 14.3755 2.10116 14.0226 1.88713 13.6035C1.55966 12.9623 1.64769 12.1144 1.82374 10.4188C1.9707 9.00327 2.04418 8.29548 2.40554 7.77569C2.64278 7.43443 2.96366 7.15472 3.33981 6.9613C3.91274 6.66669 4.65121 6.66669 6.12814 6.66669H13.8715C15.3485 6.66669 16.0869 6.66669 16.6598 6.9613C17.036 7.15472 17.3569 7.43443 17.5942 7.77569C17.9555 8.29548 18.029 9.00327 18.1759 10.4188C18.352 12.1144 18.44 12.9623 18.1125 13.6035C17.8985 14.0226 17.5669 14.3755 17.1553 14.6224C16.5254 15 15.6408 15 13.8715 15" stroke="#006980" stroke-width="1.5"/>
<path d="M14.1668 6.66669V5.00002C14.1668 3.42867 14.1668 2.643 13.6787 2.15485C13.1905 1.66669 12.4048 1.66669 10.8335 1.66669H9.16683C7.59548 1.66669 6.8098 1.66669 6.32165 2.15485C5.8335 2.643 5.8335 3.42867 5.8335 5.00002V6.66669" stroke="#006980" stroke-width="1.5" stroke-linejoin="round"/>
<path d="M11.6574 13.3333H8.34291C7.77185 13.3333 7.48631 13.3333 7.24336 13.4241C6.91942 13.545 6.64205 13.78 6.45533 14.0916C6.31529 14.3253 6.24604 14.6259 6.10753 15.227C5.89111 16.1662 5.7829 16.6358 5.85649 17.0124C5.95462 17.5145 6.26047 17.9395 6.6856 18.1645C7.00444 18.3333 7.4506 18.3333 8.34291 18.3333H11.6574C12.5497 18.3333 12.9959 18.3333 13.3147 18.1645C13.7398 17.9395 14.0457 17.5145 14.1438 17.0124C14.2174 16.6358 14.1092 16.1662 13.8928 15.227C13.7543 14.6259 13.685 14.3253 13.545 14.0916C13.3582 13.78 13.0809 13.545 12.757 13.4241C12.514 13.3333 12.2285 13.3333 11.6574 13.3333Z" stroke="#006980" stroke-width="1.5" stroke-linejoin="round"/>
<path d="M15 10H15.0075" stroke="#006980" stroke-width="2" stroke-linecap="round" stroke-linejoin="round"/>
</svg>
