<svg width="20" height="20" viewBox="0 0 20 20" fill="none" xmlns="http://www.w3.org/2000/svg">
<path d="M17.5 5.41669C17.5 6.7974 16.3807 7.91669 15 7.91669C13.6192 7.91669 12.5 6.7974 12.5 5.41669C12.5 4.03598 13.6192 2.91669 15 2.91669C16.3807 2.91669 17.5 4.03598 17.5 5.41669Z" stroke="#006980" stroke-width="1.25"/>
<path d="M7.5 10C7.5 11.3807 6.38071 12.5 5 12.5C3.61929 12.5 2.5 11.3807 2.5 10C2.5 8.61925 3.61929 7.5 5 7.5C6.38071 7.5 7.5 8.61925 7.5 10Z" stroke="#006980" stroke-width="1.25"/>
<path d="M17.5 14.5833C17.5 15.9641 16.3807 17.0833 15 17.0833C13.6192 17.0833 12.5 15.9641 12.5 14.5833C12.5 13.2026 13.6192 12.0833 15 12.0833C16.3807 12.0833 17.5 13.2026 17.5 14.5833Z" stroke="#006980" stroke-width="1.25"/>
<path d="M7.27393 8.9579L12.6906 6.45831M7.27393 11.0416L12.6906 13.5412" stroke="#006980" stroke-width="1.25"/>
</svg>
